<?xml version="1.0" encoding="UTF-8" standalone="no"?>
<svg width="32" height="32" viewBox="0 0 32 32" fill="none" xmlns="http://www.w3.org/2000/svg">
  <!-- Background -->
  <rect width="32" height="32" rx="8" fill="#2D3748"/>
  
  <!-- Y letter -->
  <path d="M9 7C9.5 7 10 7.3 10.3 7.8L16 18.5L21.7 7.8C22 7.3 22.5 7 23 7C23.8 7 24.5 7.7 24.5 8.5C24.5 8.8 24.4 9.1 24.2 9.4L17.2 22C16.9 22.6 16.5 23 16 23C15.5 23 15.1 22.6 14.8 22L7.8 9.4C7.6 9.1 7.5 8.8 7.5 8.5C7.5 7.7 8.2 7 9 7Z" fill="#ABF312"/>
  
  <!-- Bottom dot -->
  <circle cx="16" cy="25" r="1.5" fill="#ABF312"/>
  
  <!-- Subtle outline -->
  <rect x="1" y="1" width="30" height="30" rx="7" stroke="#2D3748" stroke-width="0.5" stroke-opacity="0.2"/>
  
  <!-- Subtle glow around the letter for better visibility -->
  <path d="M9 7C9.5 7 10 7.3 10.3 7.8L16 18.5L21.7 7.8C22 7.3 22.5 7 23 7C23.8 7 24.5 7.7 24.5 8.5C24.5 8.8 24.4 9.1 24.2 9.4L17.2 22C16.9 22.6 16.5 23 16 23C15.5 23 15.1 22.6 14.8 22L7.8 9.4C7.6 9.1 7.5 8.8 7.5 8.5C7.5 7.7 8.2 7 9 7Z" 
        fill="#ABF312" opacity="0.2" filter="blur(2px)"/>
</svg>